<?xml version="1.0" encoding="UTF-8" standalone="no"?>
<svg
   height="48"
   viewBox="0 -960 960 960"
   width="48"
   fill="#1f1f1f"
   version="1.1"
   id="svg1"
   xml:space="preserve"
   xmlns="http://www.w3.org/2000/svg"
   xmlns:svg="http://www.w3.org/2000/svg"><defs
     id="defs1" /><path
     d="m 260,-200 c -16,0 -30,-6 -42,-18 -12,-12 -18,-26 -18,-42 v -560 c 0,-16 6,-30 18,-42 12,-12 26,-18 42,-18 h 560 c 16,0 30,6 42,18 12,12 18,26 18,42 v 560 c 0,16 -6,30 -18,42 -12,12 -26,18 -42,18 z m 0,-60 H 820 V -820 H 260 Z M 140,-80 c -16,0 -30,-6 -42,-18 -12,-12 -18,-26 -18,-42 v -620 h 60 v 620 h 620 v 60 z m 120,-740 v 560 z"
     id="path1" /><g
     style="fill:#1f1f1f"
     id="g1"
     transform="translate(-320,60)"><path
       d="m 704.3341,-650.29892 q -44.01345,0 -75.04334,-31.11154 -31.02988,-31.11155 -31.02988,-75.125 0,-44.01345 31.11154,-75.04334 31.11155,-31.02989 75.125,-31.02989 44.01345,0 75.04334,31.11155 31.02989,31.11154 31.02989,75.12499 0,44.01346 -31.11155,75.04334 -31.11154,31.02989 -75.125,31.02989 z m -0.0163,-48.99455 q 23.77868,0 40.5185,-16.64183 16.73981,-16.64182 16.73981,-40.42051 0,-23.7787 -16.64183,-40.51851 -16.64182,-16.73981 -40.42051,-16.73981 -23.7787,0 -40.51851,16.64182 -16.7398,16.64182 -16.7398,40.42052 0,23.77869 16.64182,40.5185 16.64182,16.73982 40.42052,16.73982 z M 1014.633,-340 q -44.01341,0 -75.04331,-31.11156 -31.02989,-31.11154 -31.02989,-75.125 0,-44.01344 31.11154,-75.04334 31.11155,-31.02988 75.12496,-31.02988 44.0134,0 75.0434,31.11154 31.0298,31.11155 31.0298,75.125 0,44.01345 -31.1116,75.04334 Q 1058.6465,-340 1014.633,-340 Z m -0.016,-48.99456 q 23.7786,0 40.5185,-16.64182 16.7398,-16.64183 16.7398,-40.42052 0,-23.7787 -16.6419,-40.5185 -16.6418,-16.73982 -40.4205,-16.73982 -23.77864,0 -40.51845,16.64182 -16.73981,16.64182 -16.73981,40.42052 0,23.77869 16.64182,40.5185 16.64182,16.73982 40.42054,16.73982 z M 632.55741,-340 l -34.29619,-34.2962 488.31248,-488.31249 34.2962,34.2962 z"
       id="path1-5"
       style="stroke-width:0.816576" /></g></svg>
